<?xml version="1.0" encoding="utf-8"?>
<!-- Generator: Adobe Illustrator 16.0.0, SVG Export Plug-In . SVG Version: 6.00 Build 0)  -->
<!DOCTYPE svg PUBLIC "-//W3C//DTD SVG 1.1//EN" "http://www.w3.org/Graphics/SVG/1.1/DTD/svg11.dtd">
<svg version="1.1" id="Layer_1" xmlns="http://www.w3.org/2000/svg" xmlns:xlink="http://www.w3.org/1999/xlink" x="0px" y="0px"
	 width="17.745px" height="11.255px" viewBox="0 0 17.745 11.255" enable-background="new 0 0 17.745 11.255" xml:space="preserve">
<g>
	<path fill="#FFFFFF" d="M16.657,8.87c0-3.298-2.976-6.013-6.818-6.409c0.279-0.26,0.456-0.627,0.456-1.039
		C10.295,0.637,9.658,0,8.873,0C8.086,0,7.449,0.637,7.449,1.422c0,0.412,0.177,0.779,0.456,1.039
		C4.063,2.857,1.087,5.572,1.087,8.87C1.087,8.871,16.657,8.871,16.657,8.87z M6.602,4.444c-1.094,0.35-2.021,1.004-2.61,1.84
		C3.906,6.406,3.771,6.47,3.633,6.47c-0.087,0-0.175-0.026-0.251-0.08C3.184,6.251,3.137,5.978,3.275,5.781
		c0.699-0.991,1.785-1.762,3.06-2.169c0.231-0.074,0.476,0.054,0.55,0.283C6.958,4.125,6.832,4.371,6.602,4.444z"/>
	<path fill="#FFFFFF" d="M16.87,9.505H0.875C0.392,9.505,0,9.897,0,10.38c0,0.483,0.392,0.875,0.875,0.875H16.87
		c0.483,0,0.875-0.392,0.875-0.875C17.745,9.897,17.353,9.505,16.87,9.505z"/>
</g>
</svg>
